<mxfile host="app.diagrams.net" modified="2021-11-05T02:16:19.624Z" agent="5.0 (Windows NT 6.1; Win64; x64) AppleWebKit/537.36 (KHTML, like Gecko) Chrome/95.0.4638.54 Safari/537.36" etag="wumavriA3YjvaqzhGx-N" version="15.5.2" type="github">
  <diagram id="mmPG34C0NHGstYN-ysvM" name="Page-1">
    <mxGraphModel dx="1422" dy="802" grid="1" gridSize="10" guides="1" tooltips="1" connect="1" arrows="1" fold="1" page="1" pageScale="1" pageWidth="827" pageHeight="1169" math="0" shadow="0">
      <root>
        <mxCell id="0" />
        <mxCell id="1" parent="0" />
        <mxCell id="ibFX9Qpob52fLU0TAbO7-4" value="选择预核保" style="edgeStyle=orthogonalEdgeStyle;rounded=0;orthogonalLoop=1;jettySize=auto;html=1;exitX=0.5;exitY=1;exitDx=0;exitDy=0;entryX=0.5;entryY=0;entryDx=0;entryDy=0;" edge="1" parent="1" source="ibFX9Qpob52fLU0TAbO7-1">
          <mxGeometry relative="1" as="geometry">
            <mxPoint x="414" y="210" as="targetPoint" />
          </mxGeometry>
        </mxCell>
        <mxCell id="ibFX9Qpob52fLU0TAbO7-1" value="信泰测算页面" style="ellipse;whiteSpace=wrap;html=1;" vertex="1" parent="1">
          <mxGeometry x="354" y="70" width="120" height="80" as="geometry" />
        </mxCell>
        <mxCell id="ibFX9Qpob52fLU0TAbO7-10" style="edgeStyle=orthogonalEdgeStyle;rounded=0;orthogonalLoop=1;jettySize=auto;html=1;exitX=0;exitY=0.5;exitDx=0;exitDy=0;entryX=0.5;entryY=0;entryDx=0;entryDy=0;" edge="1" parent="1" source="ibFX9Qpob52fLU0TAbO7-5" target="ibFX9Qpob52fLU0TAbO7-6">
          <mxGeometry relative="1" as="geometry" />
        </mxCell>
        <mxCell id="ibFX9Qpob52fLU0TAbO7-12" value="开始进行预核保" style="edgeLabel;html=1;align=center;verticalAlign=middle;resizable=0;points=[];" vertex="1" connectable="0" parent="ibFX9Qpob52fLU0TAbO7-10">
          <mxGeometry x="0.1842" y="5" relative="1" as="geometry">
            <mxPoint as="offset" />
          </mxGeometry>
        </mxCell>
        <mxCell id="ibFX9Qpob52fLU0TAbO7-11" style="edgeStyle=orthogonalEdgeStyle;rounded=0;orthogonalLoop=1;jettySize=auto;html=1;" edge="1" parent="1" source="ibFX9Qpob52fLU0TAbO7-5" target="ibFX9Qpob52fLU0TAbO7-7">
          <mxGeometry relative="1" as="geometry" />
        </mxCell>
        <mxCell id="ibFX9Qpob52fLU0TAbO7-13" value="查看预核保记录" style="edgeLabel;html=1;align=center;verticalAlign=middle;resizable=0;points=[];" vertex="1" connectable="0" parent="ibFX9Qpob52fLU0TAbO7-11">
          <mxGeometry x="0.1962" y="-2" relative="1" as="geometry">
            <mxPoint as="offset" />
          </mxGeometry>
        </mxCell>
        <mxCell id="ibFX9Qpob52fLU0TAbO7-5" value="" style="rhombus;whiteSpace=wrap;html=1;" vertex="1" parent="1">
          <mxGeometry x="374" y="210" width="80" height="80" as="geometry" />
        </mxCell>
        <mxCell id="ibFX9Qpob52fLU0TAbO7-26" style="edgeStyle=orthogonalEdgeStyle;rounded=0;orthogonalLoop=1;jettySize=auto;html=1;entryX=0.5;entryY=0;entryDx=0;entryDy=0;" edge="1" parent="1" source="ibFX9Qpob52fLU0TAbO7-6" target="ibFX9Qpob52fLU0TAbO7-25">
          <mxGeometry relative="1" as="geometry" />
        </mxCell>
        <mxCell id="ibFX9Qpob52fLU0TAbO7-6" value="预核保数据填写" style="rounded=1;whiteSpace=wrap;html=1;" vertex="1" parent="1">
          <mxGeometry x="140" y="380" width="120" height="50" as="geometry" />
        </mxCell>
        <mxCell id="ibFX9Qpob52fLU0TAbO7-29" style="edgeStyle=orthogonalEdgeStyle;rounded=0;orthogonalLoop=1;jettySize=auto;html=1;" edge="1" parent="1" source="ibFX9Qpob52fLU0TAbO7-7">
          <mxGeometry relative="1" as="geometry">
            <mxPoint x="440" y="660" as="targetPoint" />
          </mxGeometry>
        </mxCell>
        <mxCell id="ibFX9Qpob52fLU0TAbO7-7" value="查看当前代理人下的预核保记录" style="rounded=1;whiteSpace=wrap;html=1;" vertex="1" parent="1">
          <mxGeometry x="610" y="390" width="120" height="60" as="geometry" />
        </mxCell>
        <mxCell id="ibFX9Qpob52fLU0TAbO7-30" style="edgeStyle=orthogonalEdgeStyle;rounded=0;orthogonalLoop=1;jettySize=auto;html=1;entryX=0.5;entryY=0;entryDx=0;entryDy=0;" edge="1" parent="1" source="ibFX9Qpob52fLU0TAbO7-14" target="ibFX9Qpob52fLU0TAbO7-17">
          <mxGeometry relative="1" as="geometry" />
        </mxCell>
        <mxCell id="ibFX9Qpob52fLU0TAbO7-14" value="跳转到测算页(record初始化接口带有perUwinfoId&lt;span&gt;),投保引擎请求保存数据到&lt;/span&gt;proposal_form_record_extends&amp;nbsp; 表,section_key为preUwRecordId,调用接口查询预核保数据,存到redis中" style="rounded=1;whiteSpace=wrap;html=1;" vertex="1" parent="1">
          <mxGeometry x="340" y="660" width="200" height="115" as="geometry" />
        </mxCell>
        <mxCell id="ibFX9Qpob52fLU0TAbO7-31" style="edgeStyle=orthogonalEdgeStyle;rounded=0;orthogonalLoop=1;jettySize=auto;html=1;entryX=0.5;entryY=0;entryDx=0;entryDy=0;" edge="1" parent="1" source="ibFX9Qpob52fLU0TAbO7-17" target="ibFX9Qpob52fLU0TAbO7-22">
          <mxGeometry relative="1" as="geometry" />
        </mxCell>
        <mxCell id="ibFX9Qpob52fLU0TAbO7-17" value="前端调用init接口,将数据放到initOrderInfo节点下" style="rounded=1;whiteSpace=wrap;html=1;" vertex="1" parent="1">
          <mxGeometry x="364" y="860" width="150" height="70" as="geometry" />
        </mxCell>
        <mxCell id="ibFX9Qpob52fLU0TAbO7-22" value="正常投保流程" style="rounded=1;whiteSpace=wrap;html=1;" vertex="1" parent="1">
          <mxGeometry x="380" y="1040" width="120" height="60" as="geometry" />
        </mxCell>
        <mxCell id="ibFX9Qpob52fLU0TAbO7-28" style="edgeStyle=orthogonalEdgeStyle;rounded=0;orthogonalLoop=1;jettySize=auto;html=1;" edge="1" parent="1" source="ibFX9Qpob52fLU0TAbO7-25" target="ibFX9Qpob52fLU0TAbO7-14">
          <mxGeometry relative="1" as="geometry" />
        </mxCell>
        <mxCell id="ibFX9Qpob52fLU0TAbO7-25" value="预核保填完数据,调用投保引擎,提交预核保接口,保司回调下发预核保结论,如果需要补充资料,补充完资料之后调用补充资料接口" style="rounded=1;whiteSpace=wrap;html=1;" vertex="1" parent="1">
          <mxGeometry x="85" y="470" width="230" height="60" as="geometry" />
        </mxCell>
      </root>
    </mxGraphModel>
  </diagram>
</mxfile>
